<?xml version="1.0" encoding="UTF-8"?> <svg xmlns="http://www.w3.org/2000/svg" width="451" height="404" viewBox="0 0 451 404" fill="none"> <g filter="url(#filter0_d_103_82)"> <path fill-rule="evenodd" clip-rule="evenodd" d="M295.696 122.475C295.442 122.766 295.092 123.282 294.917 123.621C294.424 124.578 293.422 128.782 293.068 131.38C292.658 134.395 291.62 136.467 289.974 137.555C288.811 138.325 288.436 138.397 284.76 138.549C278.748 138.798 278.721 138.829 277.642 146.902C276.888 152.55 276.588 153.501 275.085 155.006C273.752 156.341 272.686 156.638 269.231 156.638C268.29 156.638 267.293 156.808 267.015 157.016C266.737 157.223 266.148 158.411 265.707 159.655C263.835 164.934 261.276 170.795 260.086 172.53C259.213 173.803 258.285 174.711 257.159 175.395C255.581 176.354 255.38 176.397 252.483 176.397C250.622 176.397 249.085 176.241 248.493 175.991C247.05 175.382 245.516 175.431 244.752 176.112C244.389 176.435 242.431 178.667 240.4 181.073C235.346 187.061 233.199 189.243 230.933 190.695C229.165 191.827 228.829 191.933 226.989 191.933C225.203 191.933 224.822 191.823 223.599 190.952C222.841 190.413 221.444 189.09 220.494 188.011C219.545 186.933 218.597 185.869 218.389 185.647C218.074 185.312 217.813 185.341 216.84 185.814C215.876 186.283 211.101 189.753 208.719 191.714C207.089 193.057 204.37 194.943 203.239 195.514C201.392 196.447 197.827 196.412 195.761 195.441C194.161 194.689 191.419 192.023 190.108 189.947C187.807 186.3 185.642 186.218 180.405 189.582C179.425 190.211 178.456 190.726 178.251 190.726C178.047 190.726 177.784 191.235 177.667 191.857C177.551 192.48 176.982 194.202 176.402 195.686C175.258 198.615 175.081 200.401 175.798 201.779C176.922 203.942 178.892 204.804 185.972 206.233C188.867 206.817 191.863 207.485 192.63 207.717C195.681 208.642 198.373 211.23 200.462 215.246C202.949 220.025 204.237 220.204 212.715 216.944C218.511 214.715 220.169 214.255 222.397 214.257C225.511 214.26 226.742 214.732 231.009 217.554L233.98 219.52L234.629 218.628C236.081 216.633 238.476 214.355 239.998 213.521C241.437 212.733 241.909 212.635 244.328 212.621C246.841 212.607 247.234 212.692 249.607 213.757C251.017 214.391 252.884 215.17 253.755 215.49C255.669 216.192 256.255 215.946 257.019 214.119C259.146 209.031 261.682 204.842 263.819 202.888C264.843 201.952 267.092 201.055 269.438 200.646C271.372 200.309 276.958 200.441 278.465 200.858C279.34 201.101 279.569 200.607 280.362 196.759C280.744 194.908 281.341 193.028 281.801 192.234C282.956 190.237 286.16 187.234 289.618 184.907C294.151 181.857 293.873 182.375 294.019 176.699C294.121 172.717 294.259 171.541 294.807 169.98C295.516 167.958 296.969 165.685 298.805 163.727C300.03 162.421 302.398 159.331 302.398 159.038C302.398 158.94 301.845 157.578 301.169 156.014C297.892 148.424 297.304 145.101 298.49 140.871C298.665 140.246 299.956 138.028 301.357 135.943C303.464 132.808 303.906 131.948 303.906 130.981C303.906 129.403 303.17 127.909 301.24 125.567C298.495 122.237 296.752 121.265 295.696 122.475Z" fill="#EDA690"></path> <path fill-rule="evenodd" clip-rule="evenodd" d="M348.006 90.7819C346.88 91.3484 345.8 91.939 345.606 92.0944C345.411 92.2498 343.148 93.4612 340.576 94.7867C338.005 96.1122 335.392 97.4863 334.769 97.8401C334.147 98.1937 333.129 98.7707 332.507 99.1219C331.885 99.473 331.016 100.016 330.575 100.329C330.135 100.641 329.703 100.897 329.617 100.897C329.53 100.897 328.353 101.575 327.002 102.405C325.65 103.234 324.479 103.913 324.399 103.913C324.319 103.913 323.435 104.469 322.436 105.148C320.2 106.666 315.591 109.343 315.213 109.343C315.06 109.343 314.935 109.479 314.935 109.645C314.935 109.811 314.813 109.946 314.664 109.946C314.515 109.946 313.5 110.489 312.407 111.153C311.315 111.817 310.342 112.36 310.244 112.36C310.146 112.36 309.475 112.767 308.751 113.265C308.028 113.762 307.351 114.17 307.247 114.17C307.144 114.17 306.286 114.682 305.341 115.309C304.396 115.935 303.284 116.621 302.869 116.831C302.454 117.041 301.775 117.48 301.361 117.807C300.514 118.473 300.361 118.222 302.691 119.989C305.234 121.919 308.215 126.084 309.036 128.856C310.168 132.676 309.247 136.374 306.245 140.059C303.194 143.806 303.061 146.161 305.564 152.179C307.323 156.409 307.997 158.757 307.997 160.656C307.997 162.239 307.857 162.692 306.953 164.043C306.379 164.901 305.26 166.289 304.465 167.128C303.67 167.967 302.613 169.256 302.116 169.994C301.618 170.731 301.142 171.402 301.057 171.485C300.972 171.568 300.592 172.399 300.213 173.332C299.572 174.912 299.539 175.298 299.731 178.943C299.929 182.702 299.908 182.923 299.185 184.487C298.479 186.016 296.615 188.378 296.114 188.378C295.99 188.378 295.297 188.785 294.573 189.283C293.85 189.781 293.124 190.188 292.96 190.188C292.797 190.188 292.618 190.298 292.562 190.432C292.507 190.566 291.82 191.113 291.036 191.648C290.252 192.182 288.949 193.292 288.14 194.114C286.806 195.469 286.623 195.829 286.187 197.951C285.922 199.239 285.624 200.836 285.524 201.5C285.272 203.179 283.899 205.579 282.75 206.351C281.386 207.267 279.807 207.499 274.814 207.517C270.877 207.532 270.305 207.602 269.083 208.222C268.336 208.6 267.519 209.075 267.267 209.277C266.649 209.772 264.367 213.612 263.91 214.925C263.296 216.693 261.497 219.549 260.403 220.494C259.067 221.648 257.575 222.155 255.508 222.155C253.973 222.155 251.878 221.651 251.391 221.164C251.277 221.05 251.01 220.957 250.796 220.957C250.582 220.957 249.553 220.568 248.508 220.093C244.931 218.465 244.967 218.473 243.467 218.903C242.046 219.311 240.302 220.802 238.359 223.271C237.263 224.664 235.21 225.784 233.752 225.784C231.82 225.784 229.616 224.852 227.96 223.336C227.658 223.059 226.3 222.274 224.943 221.591C222.878 220.551 222.185 220.349 220.688 220.351C219.704 220.353 218.483 220.487 217.973 220.649C214.435 221.776 213.049 222.236 212.522 222.457C210.923 223.13 209.056 223.775 207.605 224.157C205.416 224.732 201.58 224.7 200.115 224.093C198.589 223.461 196.355 221.008 195.038 218.515C194.459 217.421 193.541 216.048 192.997 215.465C192.054 214.452 188.485 212.511 187.566 212.511C187.327 212.511 186.26 212.237 185.196 211.903C184.132 211.569 182.718 211.139 182.054 210.949C179.707 210.275 175.839 208.209 174.647 206.992C172.782 205.089 171.948 203.033 171.948 200.332C171.948 199.088 172.172 197.077 172.446 195.864C172.72 194.65 172.957 193.263 172.974 192.782C173.009 191.758 172.534 191.44 168.63 189.88C163.679 187.901 161.843 184.843 161.843 178.574C161.843 176.915 161.962 174.52 162.108 173.251L162.373 170.945L159.091 170.687C152.399 170.161 119.717 170.685 116.683 171.367C115.977 171.525 115.842 171.739 115.685 172.95C115.585 173.721 115.382 174.962 115.234 175.708C114.525 179.278 113.427 185.54 112.988 188.529C112.719 190.354 112.364 192.661 112.199 193.657C111.408 198.418 111.226 214.275 111.896 220.052C112.059 221.462 112.277 223.702 112.379 225.03C112.99 232.93 115.63 246.741 117.772 253.235C119.213 257.602 123.023 265.638 125.639 269.826C126.21 270.739 126.681 271.655 126.688 271.862C126.694 272.07 126.82 272.239 126.967 272.239C127.114 272.239 127.455 272.68 127.726 273.22C129.878 277.505 138.816 287.548 143.592 291.048C144.671 291.838 145.792 292.68 146.084 292.92C146.377 293.159 146.716 293.356 146.839 293.357C146.961 293.358 147.777 293.901 148.651 294.563C149.526 295.226 150.34 295.769 150.461 295.77C150.583 295.771 151.37 296.28 152.21 296.901C153.051 297.523 154.054 298.214 154.439 298.437C155.239 298.9 156.659 299.707 158.298 300.628C158.921 300.977 159.568 301.375 159.738 301.512C160.073 301.784 162.544 303.126 164.709 304.213C165.455 304.588 166.338 305.037 166.669 305.211C169.569 306.732 172.008 307.785 174.211 308.465C175.372 308.824 176.452 309.236 176.609 309.382C176.767 309.527 177.249 309.645 177.68 309.645C178.111 309.645 178.593 309.764 178.751 309.909C179.206 310.327 185.572 311.784 188.841 312.217C189.588 312.316 191.217 312.538 192.461 312.71C193.706 312.883 198.185 313.089 202.416 313.169C211.447 313.34 218.085 312.947 226.323 311.751C227.442 311.588 229.309 311.319 230.471 311.153C234.779 310.538 236.999 310.151 238.615 309.733C239.528 309.496 240.953 309.185 241.783 309.039C242.612 308.894 243.902 308.63 244.648 308.454C245.395 308.278 246.617 308.011 247.363 307.862C249.297 307.475 252.536 306.633 253.246 306.332C253.578 306.191 254.188 305.99 254.603 305.886C257.063 305.267 258.855 304.74 260.184 304.245C261.014 303.935 262.303 303.503 263.05 303.283C263.796 303.064 265.685 302.369 267.247 301.74C268.81 301.11 270.31 300.595 270.581 300.595C270.852 300.595 271.203 300.481 271.36 300.341C271.518 300.201 272.449 299.769 273.429 299.381C275.82 298.436 283.803 294.372 286.428 292.764C287.59 292.053 289.005 291.205 289.572 290.881C291.695 289.668 297.815 285.29 298.344 284.606C298.427 284.498 298.985 284.082 299.585 283.679C300.184 283.277 301.422 282.27 302.335 281.44C303.247 280.61 304.545 279.487 305.217 278.943C306.961 277.533 312.934 271.581 315.241 268.955C316.317 267.729 317.846 266.032 318.638 265.184C320.102 263.616 320.335 263.332 322.844 260.065C323.628 259.046 324.714 257.682 325.258 257.034C326.209 255.902 328.032 253.396 328.661 252.357C328.827 252.082 329.775 250.708 330.767 249.304C331.759 247.899 332.828 246.274 333.143 245.693C333.457 245.113 334.086 244.162 334.541 243.582C334.996 243.001 335.644 241.983 335.981 241.319C336.319 240.656 337.144 239.23 337.815 238.152C341.555 232.14 346.575 222.209 349.176 215.678C354.738 201.709 358.726 185.186 360.39 169.222C361.329 160.212 361.054 139.058 359.901 131.666C359.758 130.753 359.486 128.785 359.296 127.292C358.074 117.719 355.677 106.325 353.553 99.9916C353.08 98.5813 352.202 95.8664 351.603 93.9584C351.004 92.0504 350.41 90.3234 350.283 90.1206C350.114 89.8488 349.516 90.0226 348.006 90.7819ZM109.505 175.089C106.868 178.385 104.987 180.856 104.507 181.654C104.186 182.188 103.302 183.545 102.541 184.671C100.047 188.363 96.3021 195.398 94.9486 198.936C93.138 203.668 92.1691 206.903 91.2801 211.185C89.4077 220.201 89.5655 226.221 91.9112 235.286C93.6934 242.172 100.037 253.946 105.719 260.917C106.391 261.741 107.077 262.596 107.242 262.817C107.408 263.038 107.826 263.522 108.171 263.893C108.516 264.264 108.924 264.784 109.076 265.049C109.465 265.724 114.725 271.38 116.856 273.415C121.69 278.032 121.947 278.26 126.699 282.172C129.832 284.75 129.744 284.681 130.923 285.505C132.016 286.269 131.892 285.954 130.513 284.46C129.429 283.287 125.591 278.095 123.932 275.558C121.448 271.759 117.325 264.271 116.48 262.022C116.316 261.586 115.755 260.211 115.234 258.966C113.727 255.371 112.256 250.914 111.604 247.964C111.272 246.466 110.875 244.834 110.721 244.336C109.88 241.617 108.046 230.868 107.094 223.069C105.874 213.08 105.891 198.308 107.131 190.037C108.049 183.913 109.507 176.929 110.264 175.029C110.54 174.336 110.078 174.373 109.505 175.089Z" fill="#F9CE99"></path> </g> <defs> <filter id="filter0_d_103_82" x="0" y="0" width="450.956" height="403.207" filterUnits="userSpaceOnUse" color-interpolation-filters="sRGB"> <feFlood flood-opacity="0" result="BackgroundImageFix"></feFlood> <feColorMatrix in="SourceAlpha" type="matrix" values="0 0 0 0 0 0 0 0 0 0 0 0 0 0 0 0 0 0 127 0" result="hardAlpha"></feColorMatrix> <feOffset></feOffset> <feGaussianBlur stdDeviation="45"></feGaussianBlur> <feComposite in2="hardAlpha" operator="out"></feComposite> <feColorMatrix type="matrix" values="0 0 0 0 0.976471 0 0 0 0 0.807843 0 0 0 0 0.6 0 0 0 0.3 0"></feColorMatrix> <feBlend mode="normal" in2="BackgroundImageFix" result="effect1_dropShadow_103_82"></feBlend> <feBlend mode="normal" in="SourceGraphic" in2="effect1_dropShadow_103_82" result="shape"></feBlend> </filter> </defs> </svg> 